# Blender v2.79 (sub 0) OBJ File: ''
# www.blender.org
o Cone_Cone.001
v 0.000000 1.000000 0.000000
v 0.000000 0.000000 2.000000
v 0.195090 0.980785 0.000000
v 0.382683 0.923880 0.000000
v 0.555570 0.831470 0.000000
v 0.707107 0.707107 0.000000
v 0.831470 0.555570 0.000000
v 0.923880 0.382683 0.000000
v 0.980785 0.195090 0.000000
v 1.000000 0.000000 0.000000
v 0.980785 -0.195090 0.000000
v 0.923880 -0.382683 0.000000
v 0.831470 -0.555570 0.000000
v 0.707107 -0.707107 0.000000
v 0.555570 -0.831470 0.000000
v 0.382683 -0.923880 0.000000
v 0.195090 -0.980785 0.000000
v -0.000000 -1.000000 0.000000
v -0.195091 -0.980785 0.000000
v -0.382684 -0.923879 0.000000
v -0.555571 -0.831469 0.000000
v -0.707107 -0.707106 0.000000
v -0.831470 -0.555570 0.000000
v -0.923880 -0.382683 0.000000
v -0.980785 -0.195089 0.000000
v -1.000000 0.000001 0.000000
v -0.980785 0.195091 0.000000
v -0.923879 0.382684 0.000000
v -0.831469 0.555571 0.000000
v -0.707106 0.707108 0.000000
v -0.555569 0.831470 0.000000
v -0.382682 0.923880 0.000000
v -0.195089 0.980786 0.000000
vn 0.0000 0.8641 -0.5033
vn 0.0000 0.0000 1.0000
vn 0.1686 0.8475 -0.5033
vn 0.3307 0.7983 -0.5033
vn 0.4801 0.7185 -0.5033
vn 0.6110 0.6110 -0.5033
vn 0.7185 0.4801 -0.5033
vn 0.7983 0.3307 -0.5033
vn 0.8475 0.1686 -0.5033
vn 0.8641 0.0000 -0.5033
vn 0.8475 -0.1686 -0.5033
vn 0.7983 -0.3307 -0.5033
vn 0.7185 -0.4801 -0.5033
vn 0.6110 -0.6110 -0.5033
vn 0.4801 -0.7185 -0.5033
vn 0.3307 -0.7983 -0.5033
vn 0.1686 -0.8475 -0.5033
vn 0.0000 -0.8641 -0.5033
vn -0.1686 -0.8475 -0.5033
vn -0.3307 -0.7983 -0.5033
vn -0.4801 -0.7185 -0.5033
vn -0.6110 -0.6110 -0.5033
vn -0.7185 -0.4801 -0.5033
vn -0.7983 -0.3307 -0.5033
vn -0.8475 -0.1686 -0.5033
vn -0.8641 0.0000 -0.5033
vn -0.8475 0.1686 -0.5033
vn -0.7983 0.3307 -0.5033
vn -0.7185 0.4801 -0.5033
vn -0.6110 0.6110 -0.5033
vn -0.4801 0.7185 -0.5033
vn -0.3307 0.7983 -0.5033
vn -0.1686 0.8475 -0.5033
s 1
f 1/1/1 2/1/2 3/1/3
f 3/1/3 2/1/2 4/1/4
f 4/1/4 2/1/2 5/1/5
f 5/1/5 2/1/2 6/1/6
f 6/1/6 2/1/2 7/1/7
f 7/1/7 2/1/2 8/1/8
f 8/1/8 2/1/2 9/1/9
f 9/1/9 2/1/2 10/1/10
f 10/1/10 2/1/2 11/1/11
f 11/1/11 2/1/2 12/1/12
f 12/1/12 2/1/2 13/1/13
f 13/1/13 2/1/2 14/1/14
f 14/1/14 2/1/2 15/1/15
f 15/1/15 2/1/2 16/1/16
f 16/1/16 2/1/2 17/1/17
f 17/1/17 2/1/2 18/1/18
f 18/1/18 2/1/2 19/1/19
f 19/1/19 2/1/2 20/1/20
f 20/1/20 2/1/2 21/1/21
f 21/1/21 2/1/2 22/1/22
f 22/1/22 2/1/2 23/1/23
f 23/1/23 2/1/2 24/1/24
f 24/1/24 2/1/2 25/1/25
f 25/1/25 2/1/2 26/1/26
f 26/1/26 2/1/2 27/1/27
f 27/1/27 2/1/2 28/1/28
f 28/1/28 2/1/2 29/1/29
f 29/1/29 2/1/2 30/1/30
f 30/1/30 2/1/2 31/1/31
f 31/1/31 2/1/2 32/1/32
f 32/1/32 2/1/2 33/1/33
f 33/1/33 2/1/2 1/1/1
f 17/1/17 25/1/25 9/1/9
f 33/1/33 1/1/1 3/1/3
f 3/1/3 4/1/4 5/1/5
f 5/1/5 6/1/6 7/1/7
f 7/1/7 8/1/8 5/1/5
f 9/1/9 10/1/10 11/1/11
f 11/1/11 12/1/12 9/1/9
f 13/1/13 14/1/14 17/1/17
f 15/1/15 16/1/16 17/1/17
f 17/1/17 18/1/18 19/1/19
f 19/1/19 20/1/20 21/1/21
f 21/1/21 22/1/22 23/1/23
f 23/1/23 24/1/24 25/1/25
f 25/1/25 26/1/26 27/1/27
f 27/1/27 28/1/28 29/1/29
f 29/1/29 30/1/30 33/1/33
f 31/1/31 32/1/32 33/1/33
f 33/1/33 3/1/3 9/1/9
f 5/1/5 8/1/8 9/1/9
f 9/1/9 12/1/12 13/1/13
f 14/1/14 15/1/15 17/1/17
f 17/1/17 19/1/19 25/1/25
f 21/1/21 23/1/23 25/1/25
f 25/1/25 27/1/27 33/1/33
f 30/1/30 31/1/31 33/1/33
f 3/1/3 5/1/5 9/1/9
f 9/1/9 13/1/13 17/1/17
f 19/1/19 21/1/21 25/1/25
f 27/1/27 29/1/29 33/1/33
f 33/1/33 9/1/9 25/1/25
