# Blender v2.79 (sub 0) OBJ File: 'cylinder.blend'
# www.blender.org
mtllib cylinder.mtl
o Cylinder
v -0.500000 0.000000 0.000000
v -0.500000 0.000000 0.500000
v -0.490393 0.097545 0.000000
v -0.490393 0.097545 0.500000
v -0.461940 0.191342 0.000000
v -0.461940 0.191342 0.500000
v -0.415735 0.277785 0.000000
v -0.415735 0.277785 0.500000
v -0.353553 0.353553 0.000000
v -0.353553 0.353553 0.500000
v -0.277785 0.415735 0.000000
v -0.277785 0.415735 0.500000
v -0.191342 0.461940 0.000000
v -0.191342 0.461940 0.500000
v -0.097545 0.490393 0.000000
v -0.097545 0.490393 0.500000
v -0.000000 0.500000 0.000000
v -0.000000 0.500000 0.500000
v 0.097545 0.490393 0.000000
v 0.097545 0.490393 0.500000
v 0.191342 0.461940 0.000000
v 0.191342 0.461940 0.500000
v 0.277785 0.415735 0.000000
v 0.277785 0.415735 0.500000
v 0.353553 0.353553 0.000000
v 0.353553 0.353553 0.500000
v 0.415735 0.277785 0.000000
v 0.415735 0.277785 0.500000
v 0.461940 0.191342 0.000000
v 0.461940 0.191342 0.500000
v 0.490393 0.097545 0.000000
v 0.490393 0.097545 0.500000
v 0.500000 -0.000000 0.000000
v 0.500000 -0.000000 0.500000
v 0.490393 -0.097545 0.000000
v 0.490393 -0.097545 0.500000
v 0.461940 -0.191342 0.000000
v 0.461940 -0.191342 0.500000
v 0.415735 -0.277785 0.000000
v 0.415735 -0.277785 0.500000
v 0.353553 -0.353554 0.000000
v 0.353553 -0.353554 0.500000
v 0.277785 -0.415735 0.000000
v 0.277785 -0.415735 0.500000
v 0.191341 -0.461940 0.000000
v 0.191341 -0.461940 0.500000
v 0.097545 -0.490393 0.000000
v 0.097545 -0.490393 0.500000
v -0.000000 -0.500000 0.000000
v -0.000000 -0.500000 0.500000
v -0.097546 -0.490393 0.000000
v -0.097546 -0.490393 0.500000
v -0.191342 -0.461940 0.000000
v -0.191342 -0.461940 0.500000
v -0.277786 -0.415734 0.000000
v -0.277786 -0.415734 0.500000
v -0.353554 -0.353553 0.000000
v -0.353554 -0.353553 0.500000
v -0.415735 -0.277785 0.000000
v -0.415735 -0.277785 0.500000
v -0.461940 -0.191341 0.000000
v -0.461940 -0.191341 0.500000
v -0.490393 -0.097544 0.000000
v -0.490393 -0.097544 0.500000
vn -0.9952 0.0980 0.0000
vn -0.9569 0.2903 0.0000
vn -0.8819 0.4714 0.0000
vn -0.7730 0.6344 0.0000
vn -0.6344 0.7730 0.0000
vn -0.4714 0.8819 0.0000
vn -0.2903 0.9569 0.0000
vn -0.0980 0.9952 0.0000
vn 0.0980 0.9952 0.0000
vn 0.2903 0.9569 0.0000
vn 0.4714 0.8819 0.0000
vn 0.6344 0.7730 0.0000
vn 0.7730 0.6344 0.0000
vn 0.8819 0.4714 0.0000
vn 0.9569 0.2903 0.0000
vn 0.9952 0.0980 0.0000
vn 0.9952 -0.0980 0.0000
vn 0.9569 -0.2903 0.0000
vn 0.8819 -0.4714 0.0000
vn 0.7730 -0.6344 0.0000
vn 0.6344 -0.7730 0.0000
vn 0.4714 -0.8819 0.0000
vn 0.2903 -0.9569 0.0000
vn 0.0980 -0.9952 0.0000
vn -0.0980 -0.9952 0.0000
vn -0.2903 -0.9569 0.0000
vn -0.4714 -0.8819 0.0000
vn -0.6344 -0.7730 0.0000
vn -0.7730 -0.6344 0.0000
vn -0.8819 -0.4714 0.0000
vn -0.9569 -0.2903 0.0000
vn -0.9952 -0.0980 0.0000
vn 0.0000 0.0000 -1.0000
vn 0.6725 -0.2785 0.6857
vn 0.2785 0.6725 0.6857
vn -0.2785 -0.6725 0.6857
vn -0.6725 0.2785 0.6857
vn -0.7139 0.1420 0.6857
vn -0.7279 0.0000 0.6857
vn -0.7139 -0.1420 0.6857
vn -0.6725 -0.2785 0.6857
vn -0.6052 -0.4044 0.6857
vn -0.5147 -0.5147 0.6857
vn -0.4044 -0.6052 0.6857
vn -0.1420 -0.7139 0.6857
vn 0.0000 -0.7279 0.6857
vn 0.1420 -0.7139 0.6857
vn 0.2785 -0.6725 0.6857
vn 0.4044 -0.6052 0.6857
vn 0.5147 -0.5147 0.6857
vn 0.6052 -0.4044 0.6857
vn 0.7139 -0.1420 0.6857
vn 0.7279 0.0000 0.6857
vn 0.7139 0.1420 0.6857
vn 0.6725 0.2785 0.6857
vn 0.6052 0.4044 0.6857
vn 0.5147 0.5147 0.6857
vn 0.4044 0.6052 0.6857
vn 0.1420 0.7139 0.6857
vn 0.0000 0.7279 0.6857
vn -0.1420 0.7139 0.6857
vn -0.2785 0.6725 0.6857
vn -0.4044 0.6052 0.6857
vn -0.5147 0.5147 0.6857
vn -0.6052 0.4044 0.6857
usemtl Material.001
s off
f 2/1/1 3/1/1 1/1/1
f 4/1/2 5/1/2 3/1/2
f 6/1/3 7/1/3 5/1/3
f 8/1/4 9/1/4 7/1/4
f 10/1/5 11/1/5 9/1/5
f 12/1/6 13/1/6 11/1/6
f 14/1/7 15/1/7 13/1/7
f 16/1/8 17/1/8 15/1/8
f 18/1/9 19/1/9 17/1/9
f 20/1/10 21/1/10 19/1/10
f 22/1/11 23/1/11 21/1/11
f 24/1/12 25/1/12 23/1/12
f 26/1/13 27/1/13 25/1/13
f 28/1/14 29/1/14 27/1/14
f 30/1/15 31/1/15 29/1/15
f 32/1/16 33/1/16 31/1/16
f 34/1/17 35/1/17 33/1/17
f 36/1/18 37/1/18 35/1/18
f 38/1/19 39/1/19 37/1/19
f 40/1/20 41/1/20 39/1/20
f 42/1/21 43/1/21 41/1/21
f 44/1/22 45/1/22 43/1/22
f 46/1/23 47/1/23 45/1/23
f 48/1/24 49/1/24 47/1/24
f 50/1/25 51/1/25 49/1/25
f 52/1/26 53/1/26 51/1/26
f 54/1/27 55/1/27 53/1/27
f 56/1/28 57/1/28 55/1/28
f 58/1/29 59/1/29 57/1/29
f 60/1/30 61/1/30 59/1/30
f 62/1/31 63/1/31 61/1/31
f 64/1/32 1/1/32 63/1/32
f 31/1/33 47/1/33 15/1/33
f 2/1/1 4/1/1 3/1/1
f 4/1/2 6/1/2 5/1/2
f 6/1/3 8/1/3 7/1/3
f 8/1/4 10/1/4 9/1/4
f 10/1/5 12/1/5 11/1/5
f 12/1/6 14/1/6 13/1/6
f 14/1/7 16/1/7 15/1/7
f 16/1/8 18/1/8 17/1/8
f 18/1/9 20/1/9 19/1/9
f 20/1/10 22/1/10 21/1/10
f 22/1/11 24/1/11 23/1/11
f 24/1/12 26/1/12 25/1/12
f 26/1/13 28/1/13 27/1/13
f 28/1/14 30/1/14 29/1/14
f 30/1/15 32/1/15 31/1/15
f 32/1/16 34/1/16 33/1/16
f 34/1/17 36/1/17 35/1/17
f 36/1/18 38/1/18 37/1/18
f 38/1/19 40/1/19 39/1/19
f 40/1/20 42/1/20 41/1/20
f 42/1/21 44/1/21 43/1/21
f 44/1/22 46/1/22 45/1/22
f 46/1/23 48/1/23 47/1/23
f 48/1/24 50/1/24 49/1/24
f 50/1/25 52/1/25 51/1/25
f 52/1/26 54/1/26 53/1/26
f 54/1/27 56/1/27 55/1/27
f 56/1/28 58/1/28 57/1/28
f 58/1/29 60/1/29 59/1/29
f 60/1/30 62/1/30 61/1/30
f 62/1/31 64/1/31 63/1/31
f 64/1/32 2/1/32 1/1/32
f 63/1/33 1/1/33 3/1/33
f 3/1/33 5/1/33 7/1/33
f 7/1/33 9/1/33 11/1/33
f 11/1/33 13/1/33 7/1/33
f 15/1/33 17/1/33 19/1/33
f 19/1/33 21/1/33 15/1/33
f 23/1/33 25/1/33 31/1/33
f 27/1/33 29/1/33 31/1/33
f 31/1/33 33/1/33 35/1/33
f 35/1/33 37/1/33 39/1/33
f 39/1/33 41/1/33 43/1/33
f 43/1/33 45/1/33 47/1/33
f 47/1/33 49/1/33 51/1/33
f 51/1/33 53/1/33 55/1/33
f 55/1/33 57/1/33 63/1/33
f 59/1/33 61/1/33 63/1/33
f 63/1/33 3/1/33 15/1/33
f 7/1/33 13/1/33 15/1/33
f 15/1/33 21/1/33 23/1/33
f 25/1/33 27/1/33 31/1/33
f 31/1/33 35/1/33 47/1/33
f 39/1/33 43/1/33 47/1/33
f 47/1/33 51/1/33 63/1/33
f 57/1/33 59/1/33 63/1/33
f 3/1/33 7/1/33 15/1/33
f 15/1/33 23/1/33 31/1/33
f 35/1/33 39/1/33 47/1/33
f 51/1/33 55/1/33 63/1/33
f 63/1/33 15/1/33 47/1/33
s 1
f 38/1/34 22/1/35 54/1/36
f 6/1/37 4/1/38 2/1/39
f 2/1/39 64/1/40 6/1/37
f 62/1/41 60/1/42 58/1/43
f 58/1/43 56/1/44 54/1/36
f 54/1/36 52/1/45 50/1/46
f 50/1/46 48/1/47 54/1/36
f 46/1/48 44/1/49 38/1/34
f 42/1/50 40/1/51 38/1/34
f 38/1/34 36/1/52 34/1/53
f 34/1/53 32/1/54 30/1/55
f 30/1/55 28/1/56 26/1/57
f 26/1/57 24/1/58 22/1/35
f 22/1/35 20/1/59 18/1/60
f 18/1/60 16/1/61 22/1/35
f 14/1/62 12/1/63 10/1/64
f 10/1/64 8/1/65 6/1/37
f 6/1/37 64/1/40 62/1/41
f 62/1/41 58/1/43 6/1/37
f 54/1/36 48/1/47 46/1/48
f 44/1/49 42/1/50 38/1/34
f 38/1/34 34/1/53 22/1/35
f 30/1/55 26/1/57 22/1/35
f 22/1/35 16/1/61 14/1/62
f 14/1/62 10/1/64 22/1/35
f 6/1/37 58/1/43 54/1/36
f 54/1/36 46/1/48 38/1/34
f 34/1/53 30/1/55 22/1/35
f 22/1/35 10/1/64 6/1/37
f 6/1/37 54/1/36 22/1/35
